<?xml version="1.0" encoding="UTF-8"?>
<svg id="Capa_2" data-name="Capa 2" xmlns="http://www.w3.org/2000/svg" viewBox="0 0 366.51 249.61">
  <g id="Capa_1-2" data-name="Capa 1">
    <polygon points="204.45 0 162.06 0 159.91 36.09 159.91 60.59 206.6 60.59 206.6 36.09 204.45 0"/>
    <polygon points="96.01 62.95 23.69 50.42 0 75.74 3.85 101.23 77.08 115.54 97.3 88.64 96.01 62.95"/>
    <polygon points="139.14 168.3 94.63 146.31 27.62 196.4 32.16 223.62 77.08 249.61 140.99 194.72 139.14 168.3"/>
    <polygon points="342.82 50.42 270.49 62.95 269.21 88.64 289.43 115.54 362.65 101.23 366.51 75.74 342.82 50.42"/>
    <polygon points="271.87 146.31 227.37 168.3 225.51 194.72 289.43 249.61 334.35 223.62 338.89 196.4 271.87 146.31"/>
  </g>
</svg>